<?xml version="1.0" encoding="UTF-8" standalone="no"?>
<!-- Created with Inkscape (http://www.inkscape.org/) -->

<svg
   width="512"
   height="512"
   viewBox="0 0 512 512"
   version="1.1"
   id="svg1"
   xml:space="preserve"
   inkscape:version="1.4 (e7c3feb100, 2024-10-09)"
   sodipodi:docname="icon.svg"
   inkscape:export-filename="../src-tauri/icons/256x256.png"
   inkscape:export-xdpi="48.034954"
   inkscape:export-ydpi="48.034954"
   xmlns:inkscape="http://www.inkscape.org/namespaces/inkscape"
   xmlns:sodipodi="http://sodipodi.sourceforge.net/DTD/sodipodi-0.dtd"
   xmlns="http://www.w3.org/2000/svg"
   xmlns:svg="http://www.w3.org/2000/svg"><sodipodi:namedview
     id="namedview1"
     pagecolor="#ffffff"
     bordercolor="#666666"
     borderopacity="1.0"
     inkscape:showpageshadow="2"
     inkscape:pageopacity="0.0"
     inkscape:pagecheckerboard="0"
     inkscape:deskcolor="#d1d1d1"
     inkscape:document-units="px"
     showguides="true"
     inkscape:zoom="2.09"
     inkscape:cx="242.34449"
     inkscape:cy="263.63636"
     inkscape:window-width="2515"
     inkscape:window-height="1364"
     inkscape:window-x="0"
     inkscape:window-y="0"
     inkscape:window-maximized="1"
     inkscape:current-layer="layer2"><sodipodi:guide
       position="27.848343,453.85208"
       orientation="1,0"
       id="guide1"
       inkscape:locked="false" /><sodipodi:guide
       position="102.81159,445.0681"
       orientation="1,0"
       id="guide2"
       inkscape:locked="false" /><sodipodi:guide
       position="73.50222,487.57988"
       orientation="0,-1"
       id="guide3"
       inkscape:locked="false" /><sodipodi:guide
       position="62.087924,412.71278"
       orientation="0,-1"
       id="guide4"
       inkscape:locked="false" /><sodipodi:guide
       position="470.17895,375.24652"
       orientation="0,-1"
       id="guide5"
       inkscape:locked="false" /><sodipodi:guide
       position="215.68107,131.84712"
       orientation="0,-1"
       id="guide6"
       inkscape:locked="false" /></sodipodi:namedview><defs
     id="defs1"><inkscape:path-effect
       effect="fillet_chamfer"
       id="path-effect5"
       is_visible="true"
       lpeversion="1"
       nodesatellites_param="F,0,0,1,0,21.847977,0,1 @ F,0,0,1,0,0,0,1 @ F,0,0,1,0,26.699089,0,1"
       radius="0"
       unit="px"
       method="auto"
       mode="F"
       chamfer_steps="1"
       flexible="false"
       use_knot_distance="true"
       apply_no_radius="true"
       apply_with_radius="true"
       only_selected="false"
       hide_knots="false" /><filter
       style="color-interpolation-filters:sRGB;"
       inkscape:label="Drop Shadow"
       id="filter80"
       x="-0.082809562"
       y="-0.083477953"
       width="1.1658489"
       height="1.1669559"><feFlood
         result="flood"
         in="SourceGraphic"
         flood-opacity="0.498039"
         flood-color="rgb(0,0,0)"
         id="feFlood79" /><feGaussianBlur
         result="blur"
         in="SourceGraphic"
         stdDeviation="5.700414"
         id="feGaussianBlur79" /><feOffset
         result="offset"
         in="blur"
         dx="0.037960"
         dy="0.000000"
         id="feOffset79" /><feComposite
         result="comp1"
         operator="out"
         in="flood"
         in2="offset"
         id="feComposite79" /><feComposite
         result="fbSourceGraphic"
         operator="atop"
         in="comp1"
         in2="SourceGraphic"
         id="feComposite80" /><feColorMatrix
         result="fbSourceGraphicAlpha"
         in="fbSourceGraphic"
         values="0 0 0 -1 0 0 0 0 -1 0 0 0 0 -1 0 0 0 0 1 0"
         id="feColorMatrix80" /><feFlood
         id="feFlood80"
         result="flood"
         in="fbSourceGraphic"
         flood-opacity="0.498039"
         flood-color="rgb(0,0,0)" /><feGaussianBlur
         id="feGaussianBlur80"
         result="blur"
         in="fbSourceGraphic"
         stdDeviation="5.700414" /><feOffset
         id="feOffset80"
         result="offset"
         in="blur"
         dx="0.037960"
         dy="0.000000" /><feComposite
         id="feComposite81"
         result="comp1"
         operator="out"
         in="flood"
         in2="offset" /><feComposite
         id="feComposite82"
         result="comp2"
         operator="atop"
         in="comp1"
         in2="fbSourceGraphic" /></filter><inkscape:path-effect
       effect="fillet_chamfer"
       id="path-effect5-7"
       is_visible="true"
       lpeversion="1"
       nodesatellites_param="F,0,0,1,0,21.847977,0,1 @ F,0,0,1,0,0,0,1 @ F,0,0,1,0,26.699089,0,1"
       radius="0"
       unit="px"
       method="auto"
       mode="F"
       chamfer_steps="1"
       flexible="false"
       use_knot_distance="true"
       apply_no_radius="true"
       apply_with_radius="true"
       only_selected="false"
       hide_knots="false" /><filter
       style="color-interpolation-filters:sRGB;"
       inkscape:label="Drop Shadow"
       id="filter13"
       x="-0.093641048"
       y="-0.11115793"
       width="1.1925447"
       height="1.222456"><feFlood
         result="flood"
         in="SourceGraphic"
         flood-opacity="0.498039"
         flood-color="rgb(0,0,0)"
         id="feFlood12" /><feGaussianBlur
         result="blur"
         in="SourceGraphic"
         stdDeviation="5.700414"
         id="feGaussianBlur12" /><feOffset
         result="offset"
         in="blur"
         dx="0.037960"
         dy="0.000000"
         id="feOffset12" /><feComposite
         result="comp1"
         operator="in"
         in="flood"
         in2="offset"
         id="feComposite12" /><feComposite
         result="comp2"
         operator="over"
         in="SourceGraphic"
         in2="comp1"
         id="feComposite13" /></filter><filter
       style="color-interpolation-filters:sRGB;"
       inkscape:label="Drop Shadow"
       id="filter15"
       x="-0.093641048"
       y="-0.11115793"
       width="1.1925447"
       height="1.222456"><feFlood
         result="flood"
         in="SourceGraphic"
         flood-opacity="0.498039"
         flood-color="rgb(0,0,0)"
         id="feFlood13" /><feGaussianBlur
         result="blur"
         in="SourceGraphic"
         stdDeviation="5.700414"
         id="feGaussianBlur13" /><feOffset
         result="offset"
         in="blur"
         dx="0.037960"
         dy="0.000000"
         id="feOffset13" /><feComposite
         result="comp1"
         operator="in"
         in="flood"
         in2="offset"
         id="feComposite14" /><feComposite
         result="comp2"
         operator="over"
         in="SourceGraphic"
         in2="comp1"
         id="feComposite15" /></filter></defs><g
     inkscape:groupmode="layer"
     id="layer2"
     inkscape:label="Ebene 2"><path
       id="path4"
       style="display:inline;fill:#3b97d3;stroke:#000000;stroke-width:10.688;stroke-linecap:round;stroke-linejoin:round;stroke-opacity:0.990079;paint-order:stroke markers fill"
       d="M 255.77734,5.984375 A 250.46918,250.46918 0 0 0 5.3066406,256.45312 250.46918,250.46918 0 0 0 255.77734,506.92188 250.46918,250.46918 0 0 0 506.24609,256.45312 250.46918,250.46918 0 0 0 255.77734,5.984375 Z m 54.16602,88.404297 91.25781,0.214844 a 20.963097,20.963097 0 0 1 14.71875,35.835934 L 164.20508,380.3418 201.26172,380.377 386.85938,200.01567 a 20.963097,20.963097 0 0 1 35.57031,14.98633 l 0.21289,97.4375 a 20.963097,20.963097 0 0 1 -6.4707,15.19141 l -54.91407,52.54102 h 39.98633 a 20.961,20.961 0 0 1 20.96094,20.96093 20.961,20.961 0 0 1 -20.96094,20.96094 H 309.0293 a 20.963097,20.963097 0 0 1 -14.49024,-36.10742 l 86.16211,-82.43555 -0.0859,-39.01172 -156.24609,151.83985 a 20.963097,20.963097 0 0 1 -14.62891,5.92773 l -96.37109,-0.0918 A 20.963097,20.963097 0 0 1 98.621094,386.37891 L 350.4082,136.40625 318.36133,136.33008 127.99219,320.73047 A 20.963097,20.963097 0 0 1 92.447266,305.67383 V 214.08984 A 20.963097,20.963097 0 0 1 98.375,199.48438 l 61.25781,-63.05274 H 113.62305 A 20.961,20.961 0 0 1 92.662109,115.4707 20.961,20.961 0 0 1 113.62305,94.509766 h 95.59765 a 20.963097,20.963097 0 0 1 15.03516,35.568354 l -89.88672,92.51758 v 33.5918 L 295.31055,100.29492 a 20.963097,20.963097 0 0 1 14.63281,-5.906248 z" /><path
       style="display:inline;fill:#3a3a3a;fill-opacity:1;stroke-linecap:round;stroke-linejoin:round;paint-order:stroke markers fill;filter:url(#filter80)"
       d="m 113.62305,94.509766 c -11.57639,3.3e-5 -20.960905,9.384544 -20.960941,20.960934 -0.212519,63.40095 -0.214843,126.80193 -0.214843,190.20313 0.0035,18.51142 22.245684,27.9331 35.544924,15.05664 l 190.36914,-184.40039 32.04687,0.0762 -251.787106,249.97266 c -13.26575,13.17694 -3.949852,35.81342 14.748046,35.83593 220.86248,0.21039 27.8574,-0.12109 287.87496,-0.12109 11.57639,-3e-5 20.96091,-9.38455 20.96094,-20.96094 -7.3e-4,-253.2978 1.1965,258.69513 0.22461,-186.13086 -0.0438,-18.50647 -22.29633,-27.88184 -35.57028,-14.98636 L 201.26172,380.37695 164.20508,380.3418 415.91992,130.43945 c 13.25583,-13.16698 3.96504,-35.787386 -14.71875,-35.835934 -55.59622,0.226858 -166.08886,-0.09375 -287.57812,-0.09375 z"
       id="path5"
       sodipodi:nodetypes="cccccccccsccccccc" /><path
       style="fill:#3b97d3;fill-opacity:1;stroke:#000000;stroke-width:1px;stroke-linecap:butt;stroke-linejoin:miter;stroke-opacity:0;filter:url(#filter13)"
       d="m 144.56216,136.53895 129.64115,-0.13448 -131.75708,124.43554 a 11.544342,11.544342 23.253934 0 1 -19.47087,-8.36693 l -0.21194,-94.06355 a 21.821428,21.821428 134.90573 0 1 21.79874,-21.87058 z"
       id="path1"
       sodipodi:nodetypes="cccc"
       inkscape:original-d="M 122.71419,136.56161 274.20331,136.40447 123.03552,279.1721 Z"
       inkscape:path-effect="#path-effect5" /><path
       style="fill:#3b97d3;fill-opacity:1;stroke:#000000;stroke-width:1px;stroke-linecap:butt;stroke-linejoin:miter;stroke-opacity:0;filter:url(#filter15)"
       d="m 144.56216,136.53895 129.64115,-0.13448 -131.75708,124.43554 a 11.544342,11.544342 23.253934 0 1 -19.47087,-8.36693 l -0.21194,-94.06355 a 21.821428,21.821428 134.90573 0 1 21.79874,-21.87058 z"
       id="path1-3"
       sodipodi:nodetypes="cccc"
       transform="rotate(180,258.02781,258.39405)"
       inkscape:original-d="M 122.71419,136.56161 274.20331,136.40447 123.03552,279.1721 Z"
       inkscape:path-effect="#path-effect5-7" /></g></svg>
